<svg width="24" height="24" viewBox="0 0 24 24" fill="none" xmlns="http://www.w3.org/2000/svg">
<path d="M23.7355 9.07942L21.5553 9.57581C21.4398 9.25692 21.2664 8.95006 21.0353 8.65524C20.8103 8.36041 20.5032 8.11974 20.114 7.93321C19.7248 7.74067 19.2292 7.64441 18.6271 7.64441C17.8062 7.64441 17.122 7.82792 16.5747 8.19495C16.0334 8.56197 15.7628 9.02828 15.7628 9.59386C15.7628 10.0933 15.9483 10.4904 16.3193 10.7852C16.6902 11.08 17.2771 11.3267 18.0798 11.5253L20.2235 12.0307C21.4945 12.3255 22.4401 12.7828 23.0604 13.4025C23.6868 14.0162 24 14.8105 24 15.7852C24 16.5975 23.7628 17.3225 23.2885 17.9603C22.8202 18.5921 22.1665 19.0915 21.3272 19.4585C20.488 19.8195 19.515 20 18.4082 20C16.9183 20 15.6929 19.6811 14.732 19.0433C13.7712 18.4055 13.1691 17.485 12.9259 16.2816L15.2338 15.8303C15.4162 16.5463 15.7719 17.0848 16.301 17.4458C16.8301 17.8069 17.5234 17.9874 18.3808 17.9874C19.3356 17.9874 20.0958 17.7888 20.6613 17.3917C21.2269 16.9886 21.5097 16.5012 21.5097 15.9296C21.5097 15.4723 21.3425 15.0872 21.008 14.7744C20.6796 14.4615 20.1688 14.2268 19.4755 14.0704L17.122 13.5379C15.8267 13.2431 14.875 12.7768 14.2668 12.139C13.6587 11.4952 13.3546 10.6889 13.3546 9.72022C13.3546 8.91998 13.5796 8.21601 14.0296 7.6083C14.4857 7.0006 15.1091 6.52527 15.8997 6.18231C16.6963 5.83935 17.6024 5.66787 18.618 5.66787C20.0593 5.66787 21.1935 5.98075 22.0205 6.6065C22.8537 7.22623 23.4253 8.05054 23.7355 9.07942Z" fill="#9D3D1E"/>
<path d="M7.68438 5.31589H8.63671V6.68051H7.68438V5.31589ZM0 18.0361L6.73204 4H9.58905L16.3211 18.0361H13.6283L7.93067 6.03069H8.39042L2.72566 18.0361H0Z" fill="#9D3D1E"/>
</svg>
